<svg xmlns="http://www.w3.org/2000/svg" id="mountain_torii" width="100%" height="100%" preserveAspectRatio="xMinYMin slice" viewBox="0 0 1280 968" fill="none">
  <g clip-path="url(#clip0_432_9653)">
    <rect width="1280" height="968" fill="#FCFCFC"></rect>
    <g opacity="0.35">
      <rect width="1280" height="201" fill="#C74A4A"></rect>
    </g>
    <g clip-path="url(#clip1_432_9653)">
      <path d="M-366.397 513.16C-354.476 512.452 -360.054 186.909 -277.897 182C-255.201 180.644 -278.846 147.971 -253.397 146.5C-175.397 146.5 -193 218 -169.5 218C-139.5 218 -151 203.5 -107 203.5C-63 203.5 -18.8967 302.839 32.6033 288C93.5984 270.425 154.81 374.624 200.5 402C226.61 417.644 299.5 406.22 320.5 418C342.664 430.433 399.603 450 427.103 458C450.603 464.836 474.475 455.199 494 458C536.5 464.097 538.5 545 581.5 545C616 545 653 530.499 680.5 530.499C719 530.499 772.559 575.731 800.103 569.499C813.564 566.453 909.896 590.649 924.103 588.999C946.804 586.366 988.963 568.766 1012.1 569.499C1082.6 571.733 1103.02 543.884 1119.6 530.499C1136.19 517.112 1160.83 483.234 1188.5 478.5C1207.68 475.22 1230.48 486.434 1250 489C1339.04 466.64 1336.36 397.334 1382 388.5L1374 670L-375.5 623.944L-366.397 513.16Z" fill="#55386E"></path>
      <g opacity="0.35">
        <rect width="1377" height="567" transform="translate(0 200.5)" fill="#C74A4A"></rect>
      </g>
      <path d="M1025 500.5C1025 558.215 978.213 605 920.499 605C862.787 605 816 558.215 816 500.5C816 442.787 862.787 396 920.499 396C978.213 396 1025 442.787 1025 500.5Z" fill="#C74A4A"></path>
      <path d="M938.668 476.824L938.539 483.355H923.803L924.787 474.743H937.451V476.824H938.668ZM901.46 483.355L901.332 476.824H902.551V474.743H915.213L916.197 483.355H901.46ZM951.953 515.582L951.638 531.445H946.4L946.083 515.582H951.953ZM932.344 531.445L932.027 515.582H937.897L937.582 531.445H932.344ZM907.973 515.582L907.656 531.445H902.418L902.103 515.582H907.973ZM888.362 531.445L888.047 515.582H893.915L893.6 531.445H888.362ZM975.527 462.582L973.015 460.306C973.688 459.545 974.052 458.561 974.038 457.547L974.015 456C964.644 460.85 954.235 463.382 943.673 463.382H896.329C885.765 463.382 875.356 460.85 865.985 456L865.962 457.547C865.948 458.561 866.31 459.545 866.985 460.306L864.473 462.582C863.67 463.313 863.929 464.632 864.952 465.005L869.077 466.506V468.259L873.119 469.252V472.375L877.248 473.198C882.406 474.224 887.655 474.743 892.915 474.743H893.467V476.824H894.686L894.557 483.355H889.319C885.026 483.355 880.746 482.928 876.541 482.079V488.846H894.449L893.993 511.708H887.97L887.837 505.065H888.252V503.491H889.735L885.055 500.362L880.378 503.491H881.86V505.065H882.275L882.143 511.708H880.427V515.582H882.065L881.75 531.445H880.427V535.321H881.672L881.48 545H888.632L888.44 535.321H893.523L893.33 545H902.688L902.495 535.321H907.578L907.386 545H914.538L914.346 535.321H915.687V531.445H914.268L913.953 515.582H915.687V511.708H913.875L913.742 505.065H914.158V503.491H915.64L910.961 500.362L906.283 503.491H907.766V505.065H908.181L908.048 511.708H902.025L901.571 488.846H938.429L937.975 511.708H931.952L931.821 505.065H932.234V503.491H933.717L929.037 500.362L924.359 503.491H925.842V505.065H926.255L926.123 511.708H924.312V515.582H926.047L925.73 531.445H924.312V535.321H925.654L925.46 545H932.614L932.422 535.321H937.505L937.31 545H946.67L946.477 535.321H951.56L951.365 545H958.52L958.328 535.321H959.573V531.445H958.252L957.935 515.582H959.573V511.708H957.857L957.726 505.065H958.14V503.491H959.622L954.943 500.362L950.265 503.491H951.748V505.065H952.163L952.03 511.708H946.007L945.553 488.846H963.457V482.079C959.254 482.928 954.973 483.355 950.68 483.355H945.442L945.311 476.824H946.53V474.743H947.087C952.345 474.743 957.593 474.224 962.752 473.198L966.881 472.375V469.252L970.925 468.259V466.506L975.05 465.005C976.071 464.632 976.33 463.313 975.527 462.582Z" fill="#082630"></path>
      <path d="M77.7214 434.459C103.748 464.511 128.694 493.315 163.5 483.082C197.491 473.089 236.379 481.223 264.092 487.019C279.59 490.26 291.593 492.771 297.288 490.97C301.196 489.735 304.092 488.385 306.747 487.147C312.722 484.361 317.477 482.144 329.802 483.082C353.619 484.894 366.582 500.179 375.798 511.046C381.169 517.379 385.268 522.211 389.5 522C397.341 521.609 406.351 528.098 414.938 534.283C418.938 537.164 422.845 539.978 426.5 542C430.077 543.979 433.651 546.143 437.215 548.3C448.717 555.263 460.115 562.163 471.198 562.601C481.468 563.007 490.62 561.64 499.076 560.377C505.562 559.408 511.64 558.5 517.5 558.5C526.26 558.5 534.776 561.891 545.05 565.982C558.23 571.23 574.304 577.63 597.5 579.5C621.062 581.4 645.048 576.257 661.531 572.724C668.38 571.255 673.933 570.065 677.623 569.772C698.528 568.116 729.271 580.593 758.314 592.38C790.922 605.613 821.389 617.978 833.386 608.496L849.301 627.362C866.257 624.709 881.257 619.669 896.335 614.604C915.532 608.154 934.855 601.662 958.5 600C976.224 598.756 993.789 601.193 1011.23 603.612C1015.63 604.223 1020.02 604.832 1024.4 605.38C1046.16 608.107 1071.79 603.305 1089.53 596.302C1100.48 591.978 1106.74 585.364 1112.95 578.801C1120.04 571.322 1127.05 563.91 1140.88 560.031C1154.7 556.151 1170.81 557.088 1187 558.03L1187.04 558.033C1202.35 558.924 1217.72 559.816 1231.26 556.637C1245.54 553.284 1254.41 546.201 1263 539.338C1264.25 538.341 1265.49 537.349 1266.75 536.374C1276.63 528.687 1336.6 520.455 1354.59 520.522V767.006H543.21C411.747 790.796 297.506 810 272.335 810H70.4475C49.505 798.841 19.4262 782.56 -8.40605 767.006H-207V530.483C-203.682 531.034 -189.713 531.811 -168.102 532.77C-164.876 473.372 -145.744 410.68 -128.5 403.484C-126.632 402.705 -124.28 401.577 -121.45 400.219C-101.368 390.587 -57.2359 369.42 8.50006 379.5C35.8622 386.125 57.1301 410.683 77.7214 434.459Z" fill="#153456"></path>
      <path opacity="0.5" d="M-168.964 442.116C-189.77 436.273 -213.53 428.16 -227.629 416L-228.789 633.38C-155.331 638.616 -60.7293 640.442 13.0729 640.238C33.1189 640.181 61.4232 606.785 90.6154 613.595C127.758 622.261 166.338 631.262 191.174 627.306C191.909 627.189 192.671 627.068 193.458 626.943C210.223 624.279 255.398 665.681 285.5 658L268.382 685.453C341.84 690.689 436.442 692.515 510.244 692.311C530.29 692.254 558.594 698.858 587.786 705.668C624.929 714.334 663.509 723.335 688.345 719.379C689.08 719.262 689.842 719.141 690.629 719.016C737.404 711.584 875.83 689.589 884.167 625.312C877.834 624.731 870.453 625.739 861.599 626.948C841.949 629.632 815.043 633.307 776.228 622.797C752.801 616.453 736.476 625.933 724.474 632.903C717.044 637.218 711.27 640.571 706.496 638.609C698.562 635.349 689.073 630.152 678.866 624.563C652.482 610.114 621.301 593.04 599.787 599.996C582.516 605.578 561.884 603.29 544.265 598.14C534.298 595.226 524.919 591.469 515.535 587.711C508.329 584.824 501.12 581.936 493.64 579.428C476.423 573.652 456.598 569.91 438.286 573.571C433.385 574.551 428.483 576.044 423.597 577.531C412.157 581.013 400.804 584.469 389.748 581.264C379.621 578.326 375.164 571.422 371.158 563.984C325 532.49 261.547 520.944 227.303 540.83C219.873 545.145 214.1 548.498 209.325 546.536C201.391 543.276 191.902 538.079 181.695 532.49C155.311 518.041 124.131 500.966 102.616 507.923C85.345 513.505 64.7134 511.217 47.0937 506.067C37.1274 503.153 27.7485 499.396 18.3646 495.638C11.1585 492.751 3.94949 489.864 -3.53064 487.355C-20.7479 481.579 -40.5732 477.837 -58.8845 481.498C-63.786 482.478 -68.6877 483.971 -73.5734 485.458C-85.0142 488.94 -96.3671 492.396 -107.423 489.191C-118.608 485.946 -122.877 477.864 -127.259 469.567C-130.525 463.383 -133.855 457.079 -140.159 452.569C-146.392 448.111 -154.93 445.855 -163.371 443.625C-165.249 443.129 -167.122 442.634 -168.964 442.116Z" fill="#082630"></path>
      <path d="M369.5 654C300.897 636.566 263.999 613.542 213.955 588.671C154.968 559.356 128.894 554.648 110.514 554.006C103.977 553.778 91.8176 559.991 76.6212 567.756C49.0894 581.824 11.5902 600.986 -20.4963 596.16C-40.6074 593.135 -180.295 616.097 -184.5 654C-246.684 653.854 -160.494 661.716 -164 661.811V830.931L1357.93 790.822V611.505C1347.93 617.942 1269.92 627.583 1257 628C1246.3 628.346 1206.14 625.853 1196.5 621.811C1191.56 619.743 1161.55 614.196 1156.41 612.691C1150.12 610.847 1143.07 609.871 1136.71 611.575C1131.26 613.036 1127.04 616.231 1122.84 619.4C1121.76 620.215 1120.68 621.029 1119.59 621.811C1111.02 627.928 1100.61 632.433 1089.45 634.856C1085.32 635.751 1080.96 636.365 1076.77 635.686C1067.18 634.133 1061.43 626.587 1057.16 619.671C1052.89 612.754 1048 605.052 1038.76 602.52C1037.6 602.202 1036.35 601.944 1035.08 601.684C1031.01 600.845 1026.86 599.991 1025.52 597.057C1024.83 595.554 1025.18 593.962 1025.53 592.355C1025.81 591.099 1026.09 589.834 1025.87 588.596C1025.16 584.489 1020.18 582.806 1014.99 581.048C1011.19 579.76 1007.27 578.433 1004.81 576.081C1001.3 572.707 1001.66 568.262 1002.03 563.737C1002.24 561.253 1002.44 558.746 1002.01 556.378C1001.84 555.426 1001.53 554.461 1001.11 553.509C998.135 546.817 989.653 542.603 980.628 542.603H847.86C840.729 542.603 837.109 550.968 836.851 556.566C836.814 557.376 836.799 558.206 836.784 559.046C836.693 564.01 836.597 569.281 831.881 572.323C830.459 573.238 828.679 573.896 826.925 574.545C823.804 575.699 820.764 576.823 819.958 579.312C819.604 580.403 819.808 581.533 820.013 582.664C820.212 583.767 820.412 584.87 820.094 585.939C818.66 590.728 810.122 590.212 803.767 589.828L803.314 589.801C793.392 589.208 783.219 592.434 776.613 598.275C767.108 606.672 766.076 618.082 765.031 629.639C764.475 635.783 763.916 641.967 762.078 647.764C761.114 650.808 759.708 653.868 757.046 656.209C745.949 665.955 709.666 664.398 709.666 664.398C709.666 664.398 658.852 666.809 655.567 667.87C654.9 668.085 653.532 668.786 651.661 669.745C645.728 672.786 634.728 678.424 624.901 679.442C602.84 681.727 582.995 705.454 574.273 696.31C571.565 693.469 564.355 689.168 556.981 684.769C548.867 679.928 510.5 662 500.5 660C481 656.1 411.844 655.245 369.5 654Z" fill="#082630"></path>
    </g>
    <rect width="1280" height="201" transform="translate(0 767)" fill="#082630"></rect>
  </g>
  <defs>
    <clipPath id="clip0_432_9653">
      <rect width="1280" height="968" fill="white"></rect>
    </clipPath>
    <clipPath id="clip1_432_9653">
      <rect width="1280" height="566" fill="white" transform="translate(0 201)"></rect>
    </clipPath>
  </defs>
</svg>